<svg xmlns="http://www.w3.org/2000/svg" xmlns:xlink="http://www.w3.org/1999/xlink" id="Layer_1" width="65.162" height="65.236" x="0" y="0" enable-background="new -.25 -.25 65.162 65.236" version="1.1" viewBox="-0.25 -0.25 65.162 65.236" xml:space="preserve"><g><path fill="#FFF" stroke="#646464" stroke-miterlimit="10" d="M40.528,48.987c0,1.101-0.899,2-2,2H2.75c-1.1,0-2-0.899-2-2V2.75 c0-1.101,0.9-2,2-2h35.778c1.101,0,2,0.899,2,2V48.987z"/><path fill="none" stroke="#646464" stroke-miterlimit="10" stroke-width="2" d="M40.528,48.987c0,1.101-0.899,2-2,2H2.75 c-1.1,0-2-0.899-2-2V2.75c0-1.101,0.9-2,2-2h35.778c1.101,0,2,0.899,2,2V48.987z"/></g><g><line x1="7.487" x2="35.554" y1="8.889" y2="8.889" fill="none" stroke="#646464" stroke-miterlimit="10" stroke-width="2"/><line x1="7.487" x2="35.554" y1="15.908" y2="15.908" fill="none" stroke="#646464" stroke-miterlimit="10" stroke-width="2"/><line x1="7.487" x2="35.554" y1="22.928" y2="22.928" fill="none" stroke="#646464" stroke-miterlimit="10" stroke-width="2"/><line x1="7.487" x2="35.554" y1="29.947" y2="29.947" fill="none" stroke="#646464" stroke-miterlimit="10" stroke-width="2"/><line x1="7.487" x2="35.554" y1="36.967" y2="36.967" fill="none" stroke="#646464" stroke-miterlimit="10" stroke-width="2"/><line x1="7.487" x2="35.554" y1="43.986" y2="43.986" fill="none" stroke="#646464" stroke-miterlimit="10" stroke-width="2"/></g><g><path fill="#FFF" stroke="#646464" stroke-miterlimit="10" d="M63.912,61.987c0,1.101-0.899,2-2,2H26.133c-1.1,0-2-0.899-2-2 V15.75c0-1.101,0.9-2,2-2h35.779c1.101,0,2,0.899,2,2V61.987z"/><path fill="none" stroke="#646464" stroke-miterlimit="10" stroke-width="2" d="M63.912,61.987c0,1.101-0.899,2-2,2H26.133 c-1.1,0-2-0.899-2-2V15.75c0-1.101,0.9-2,2-2h35.779c1.101,0,2,0.899,2,2V61.987z"/></g><g><line x1="29.672" x2="57.741" y1="20.681" y2="20.681" fill="none" stroke="#646464" stroke-miterlimit="10" stroke-width="2"/><line x1="29.672" x2="57.741" y1="27.701" y2="27.701" fill="none" stroke="#646464" stroke-miterlimit="10" stroke-width="2"/><line x1="29.672" x2="57.741" y1="34.72" y2="34.72" fill="none" stroke="#646464" stroke-miterlimit="10" stroke-width="2"/><line x1="29.672" x2="57.741" y1="41.74" y2="41.74" fill="none" stroke="#646464" stroke-miterlimit="10" stroke-width="2"/><line x1="29.672" x2="57.741" y1="48.76" y2="48.76" fill="none" stroke="#646464" stroke-miterlimit="10" stroke-width="2"/><line x1="29.672" x2="57.741" y1="55.78" y2="55.78" fill="none" stroke="#646464" stroke-miterlimit="10" stroke-width="2"/></g></svg>